<?xml version="1.0" encoding="UTF-8"?>
<!DOCTYPE svg PUBLIC "-//W3C//DTD SVG 1.1//EN" "http://www.w3.org/Graphics/SVG/1.1/DTD/svg11.dtd">
<svg version="1.1" xmlns="http://www.w3.org/2000/svg" xmlns:xlink="http://www.w3.org/1999/xlink" x="0" y="0" width="200" height="57" viewBox="0, 0, 200, 57">
  <g id="Layer_1">
    <text transform="matrix(1, 0, 0, 1, 545, 463)">
      <tspan x="0" y="4" font-family="Helvetica" font-size="12" fill="#000000">    </tspan>
    </text>
    <g id="Logo">
      <path d="M17.099,3.559 C17.432,3.948 17.765,4.335 18.098,4.724 C18.098,4.724 19.777,9.768 19.942,10.253 C20.86,10.051 22.77,9.628 25.024,8.342 C24.274,10.643 21.596,11.529 20.769,12.007 C20.769,12.007 24.859,29.984 21.427,45.539 C20.93,22.257 18.329,12.728 18.405,12.65 C17.816,12.639 14.612,13.209 11.959,12.191 C14.162,11.842 18.277,10.86 18.277,10.86 C17.944,8.419 17.432,6 17.099,3.559 M17.048,0.25 C34.704,13.577 49.656,27.823 23.652,44.73 C55.85,30.841 42.701,11.72 17.048,0.25 M5.056,47.969 C11.282,48.476 43.799,46.763 56.75,28.595 C56.787,28.484 56.827,28.462 56.907,28.914 C57.226,30.646 57.526,32.973 57.533,35.565 L57.533,35.786 C57.522,40.443 56.571,45.925 53.15,50.399 C45.877,60.233 7.704,56.083 4.697,54.652 L4.715,54.708 C2.476,52.774 0.49,48.083 -0.008,46.34 C1.064,46.34 6.204,43.844 7.104,42.862 C8.908,44.039 19.825,46.028 19.825,45.686 C19.825,45.686 18.757,47.237 7.887,44.69 C6.113,46.322 2.703,47.406 2.703,47.406 C3.131,49.862 3.779,51.785 4.43,53.818 C39.058,58.285 47.531,52.182 49.868,49.921 C55.821,44.171 57.489,36.782 56.659,29.326 L56.651,29.249 C56.637,29.337 56.604,29.437 56.538,29.558 C45.153,52.472 12.673,50.226 5.056,47.969" fill="#F10440"/>
      <path d="M85.146,55.281 L85.146,55.109 C84.992,54.98 84.827,54.793 84.659,54.55 C84.491,54.307 84.326,54.035 84.162,53.741 C83.997,53.447 83.851,53.149 83.715,52.855 C83.58,52.554 83.467,52.285 83.382,52.043 C82.563,49.631 81.791,47.205 81.081,44.771 C80.368,42.333 79.687,39.885 79.043,37.429 C78.403,34.977 77.778,32.514 77.17,30.047 C75.901,32.915 74.756,35.462 73.757,37.705 C72.751,39.936 71.862,41.903 71.09,43.583 C70.322,45.274 69.656,46.727 69.085,47.944 C68.514,49.16 68.031,50.179 67.633,51.01 C67.223,51.833 66.89,52.502 66.619,53.013 C66.352,53.532 66.133,53.929 65.957,54.212 C65.789,54.491 65.646,54.701 65.54,54.826 C65.43,54.958 65.342,55.054 65.262,55.109 L65.262,55.281 L68.485,55.281 L71.946,46.587 L76.559,46.587 C76.951,48.054 77.353,49.506 77.759,50.954 C78.173,52.407 78.597,53.848 79.036,55.281 z M74.829,39.392 C75.015,40.26 75.213,41.124 75.418,41.977 C75.623,42.837 75.831,43.686 76.051,44.539 L72.762,44.539 z M97.768,55.281 L103.877,55.281 L103.877,55.109 C103.705,54.929 103.559,54.668 103.431,54.315 C103.307,53.969 103.204,53.587 103.135,53.179 C103.069,52.774 103.028,52.396 103.028,52.046 L103.028,31.448 L86.401,31.448 L86.401,31.786 C86.649,31.926 86.887,32.165 87.107,32.499 C87.33,32.834 87.531,33.212 87.703,33.639 C87.879,34.065 88.014,34.477 88.116,34.878 C88.215,35.279 88.266,35.613 88.266,35.874 L88.266,55.281 L93.527,55.281 L93.527,33.492 L97.768,33.492 z M116.667,26.911 L112.632,28.856 L112.632,31.036 C111.6,31.36 110.653,31.896 109.782,32.65 C108.911,33.4 108.158,34.323 107.514,35.415 C106.866,36.503 106.369,37.727 106.014,39.065 C105.659,40.414 105.476,41.841 105.472,43.348 C105.476,44.745 105.63,46.069 105.941,47.33 C106.248,48.587 106.683,49.741 107.243,50.793 C107.803,51.844 108.461,52.752 109.226,53.524 C109.983,54.3 110.828,54.895 111.736,55.322 C112.654,55.741 113.616,55.958 114.633,55.962 C115.65,55.958 116.612,55.741 117.531,55.322 C118.445,54.895 119.283,54.3 120.044,53.524 C120.801,52.752 121.464,51.844 122.023,50.793 C122.583,49.741 123.018,48.587 123.326,47.33 C123.637,46.069 123.79,44.745 123.794,43.348 C123.79,42.017 123.648,40.749 123.37,39.543 C123.088,38.341 122.693,37.227 122.177,36.209 C121.668,35.187 121.058,34.29 120.355,33.51 C119.656,32.731 118.881,32.106 118.036,31.635 C117.19,31.161 116.294,30.874 115.347,30.764 z M110.594,43.348 C110.543,42.969 110.51,42.587 110.488,42.194 C110.47,41.8 110.459,41.403 110.459,40.995 C110.459,40.153 110.51,39.323 110.602,38.506 C110.697,37.679 110.839,36.915 111.026,36.198 C111.205,35.481 111.439,34.856 111.703,34.323 C111.973,33.79 112.281,33.389 112.632,33.117 L112.632,38.606 L114.564,33.014 C115.142,33.304 115.65,33.793 116.097,34.488 C116.539,35.179 116.912,36.014 117.212,36.992 C117.512,37.977 117.743,39.043 117.897,40.209 C118.05,41.37 118.127,42.561 118.127,43.789 C118.127,45.08 118.054,46.326 117.9,47.524 C117.75,48.723 117.505,49.844 117.169,50.877 C116.832,51.907 116.397,52.822 115.855,53.609 C115.72,53.815 115.548,53.918 115.347,53.918 C114.849,53.91 114.384,53.708 113.949,53.315 C113.506,52.918 113.108,52.37 112.738,51.679 C112.372,50.984 112.05,50.19 111.761,49.293 C111.472,48.392 111.227,47.44 111.037,46.422 C110.839,45.411 110.693,44.389 110.594,43.348 M138.838,30.731 L139.313,32.775 C138.889,32.418 138.417,32.084 137.898,31.775 C137.378,31.47 136.848,31.22 136.302,31.025 C135.761,30.834 135.234,30.735 134.729,30.731 C133.698,30.735 132.724,30.94 131.806,31.338 C130.895,31.742 130.065,32.312 129.315,33.043 C128.568,33.775 127.917,34.639 127.372,35.643 C126.831,36.642 126.41,37.742 126.117,38.948 C125.825,40.153 125.678,41.425 125.671,42.767 C125.678,44.278 125.854,45.701 126.201,47.035 C126.549,48.363 127.036,49.576 127.657,50.668 C128.283,51.756 129.015,52.701 129.849,53.491 C130.687,54.274 131.594,54.888 132.578,55.315 C133.562,55.741 134.583,55.958 135.648,55.962 C136.507,55.958 137.334,55.811 138.117,55.502 C138.907,55.201 139.628,54.77 140.301,54.208 C140.974,53.638 141.567,52.969 142.094,52.179 L140.974,47.984 C140.85,48.348 140.682,48.782 140.459,49.278 C140.246,49.785 139.998,50.304 139.719,50.837 C139.441,51.377 139.152,51.877 138.849,52.337 C138.541,52.804 138.241,53.182 137.945,53.469 C137.645,53.759 137.367,53.91 137.107,53.918 C136.401,53.91 135.732,53.679 135.11,53.23 C134.495,52.782 133.928,52.16 133.42,51.377 C132.911,50.594 132.476,49.693 132.113,48.682 C131.744,47.664 131.462,46.591 131.265,45.455 C131.067,44.319 130.965,43.172 130.965,42.017 C130.972,41.05 131.056,40.113 131.224,39.209 C131.389,38.308 131.616,37.466 131.905,36.687 C132.187,35.907 132.509,35.223 132.863,34.646 C133.222,34.062 133.588,33.602 133.968,33.275 C134.345,32.948 134.715,32.782 135.07,32.775 C135.867,32.771 136.635,32.999 137.385,33.459 C138.124,33.926 138.805,34.646 139.409,35.624 C140.012,36.606 140.517,37.874 140.909,39.425 C140.909,39.459 140.909,39.488 140.912,39.503 C140.912,39.528 140.923,39.543 140.941,39.561 L143.316,30.047 z M151.61,55.281 L157.716,55.281 L157.716,55.109 C157.584,54.98 157.474,54.793 157.372,54.561 C157.262,54.322 157.174,54.061 157.097,53.771 C157.024,53.473 156.969,53.179 156.929,52.881 C156.889,52.583 156.867,52.304 156.867,52.043 L156.867,33.459 C157.507,33.462 158.045,33.481 158.48,33.514 C158.912,33.547 159.281,33.613 159.574,33.701 C159.863,33.793 160.112,33.926 160.32,34.098 C160.533,34.275 160.73,34.503 160.909,34.786 C161.096,35.073 161.297,35.426 161.517,35.845 L163.313,31.411 L146.144,31.411 L144.819,37.04 C145.127,36.679 145.427,36.334 145.716,35.992 C146.005,35.654 146.308,35.33 146.641,35.032 C146.974,34.731 147.366,34.47 147.808,34.238 C148.247,34.003 148.782,33.823 149.396,33.687 C150.011,33.551 150.754,33.473 151.606,33.459 z M174.223,26.911 L172.898,30.764 C173.846,30.871 174.742,31.161 175.591,31.635 C176.432,32.106 177.208,32.731 177.907,33.51 C178.609,34.286 179.22,35.187 179.729,36.209 C180.245,37.227 180.64,38.341 180.921,39.543 C181.199,40.749 181.342,42.017 181.346,43.348 C181.342,44.745 181.189,46.069 180.878,47.33 C180.57,48.587 180.135,49.741 179.575,50.793 C179.015,51.844 178.357,52.752 177.6,53.524 C176.835,54.3 175.997,54.895 175.082,55.322 C174.164,55.741 173.202,55.958 172.185,55.962 C171.168,55.958 170.206,55.741 169.291,55.322 C168.38,54.895 167.535,54.3 166.778,53.524 C166.013,52.752 165.355,51.844 164.795,50.793 C164.231,49.741 163.796,48.587 163.492,47.33 C163.181,46.069 163.028,44.745 163.024,43.348 C163.028,41.841 163.211,40.414 163.566,39.065 C163.924,37.727 164.422,36.503 165.066,35.415 C165.709,34.323 166.463,33.4 167.334,32.65 C168.205,31.896 169.152,31.36 170.184,31.036 L170.184,28.856 z M168.146,43.348 C168.245,44.389 168.391,45.411 168.589,46.422 C168.779,47.44 169.024,48.396 169.313,49.293 C169.598,50.19 169.924,50.988 170.29,51.679 C170.656,52.37 171.062,52.918 171.501,53.315 C171.936,53.708 172.401,53.91 172.898,53.918 C173.103,53.918 173.272,53.815 173.407,53.609 C173.948,52.822 174.384,51.907 174.72,50.877 C175.057,49.844 175.302,48.723 175.456,47.524 C175.606,46.326 175.679,45.08 175.679,43.789 C175.679,42.561 175.602,41.37 175.448,40.209 C175.295,39.043 175.064,37.977 174.764,36.992 C174.464,36.014 174.091,35.179 173.648,34.488 C173.202,33.793 172.693,33.304 172.119,33.014 L170.184,38.606 L170.184,33.117 C169.833,33.389 169.529,33.79 169.255,34.323 C168.991,34.856 168.757,35.481 168.578,36.198 C168.391,36.915 168.248,37.679 168.153,38.506 C168.062,39.323 168.011,40.153 168.011,40.995 C168.011,41.403 168.022,41.8 168.04,42.194 C168.062,42.587 168.095,42.969 168.146,43.348 M200.008,55.281 L200.008,55.109 C199.858,54.98 199.693,54.793 199.525,54.55 C199.353,54.307 199.188,54.035 199.027,53.741 C198.863,53.447 198.713,53.149 198.577,52.855 C198.446,52.554 198.329,52.285 198.244,52.043 C197.425,49.631 196.657,47.205 195.943,44.771 C195.23,42.333 194.553,39.885 193.909,37.429 C193.269,34.977 192.64,32.514 192.036,30.047 C190.763,32.915 189.621,35.462 188.619,37.705 C187.613,39.936 186.724,41.903 185.956,43.583 C185.187,45.274 184.518,46.73 183.947,47.944 C183.38,49.16 182.897,50.179 182.495,51.01 C182.089,51.833 181.756,52.502 181.485,53.013 C181.218,53.532 180.998,53.929 180.819,54.212 C180.651,54.491 180.512,54.701 180.402,54.826 C180.296,54.958 180.204,55.054 180.124,55.109 L180.124,55.281 L183.347,55.281 L189.695,39.392 C190.295,42.083 190.946,44.756 191.655,47.399 C192.369,50.046 193.115,52.671 193.902,55.281 z" fill="#F1013F"/>
    </g>
  </g>
</svg>
