<?xml version="1.0" encoding="utf-8"?>
<!-- Generator: Adobe Illustrator 19.0.0, SVG Export Plug-In . SVG Version: 6.00 Build 0)  -->
<svg version="1.1" id="Layer_1" xmlns="http://www.w3.org/2000/svg" xmlns:xlink="http://www.w3.org/1999/xlink" x="0px" y="0px"
	 viewBox="0 0 513 487.5" style="enable-background:new 0 0 513 487.5;" xml:space="preserve">
<style type="text/css">
	.st0{fill:#FFC421;}
	.st1{fill-rule:evenodd;clip-rule:evenodd;fill:#FFC421;}
	.st2{fill:#060811;}
</style>
<g id="XMLID_3954_">
	<g id="XMLID_4163_">
		<path id="XMLID_4164_" class="st0" d="M218.8,380.4c0.1-1,0.2-1.7,0.3-2.2l83.4-56.1c0.1,0.5,0.1,1,0.1,2L218.8,380.4z
			 M218.8,382.5l83.6-56.2c0,0.8-0.1,1.5-0.3,2.2l-83.2,55.9C218.9,384,218.8,383.1,218.8,382.5z M219.2,386.2l82.4-55.4
			c-0.3,0.9-0.5,1.8-0.9,2.6L219.6,388C219.5,387.5,219.3,386.9,219.2,386.2z M302.4,320.1l-83,55.9c0.2-0.7,0.4-1.7,0.7-2.6
			l43.7-29.4l1,0.9c4-2.1,7-4.8,9.2-7.8l28.1-18.8C302.3,318.9,302.4,319.5,302.4,320.1z M220.2,389.6l26.2-17.6
			c-0.7,1-1.3,2-1.7,3.2l-23.9,16.1C220.5,390.8,220.3,390.3,220.2,389.6z M223.4,367.1l37.9-25.3l1.3,1.2l-41.3,27.7
			C221.8,369.5,222.6,368.2,223.4,367.1z M221.5,392.8l22.4-15.1c-0.1,0.7-0.2,1.5-0.2,2.2l-21.4,14.4L221.5,392.8z M223.4,395.6
			l20.6-13.8c0.1,0.5,0.3,1.1,0.5,1.7L224.4,397L223.4,395.6z M225.5,398.2l19.7-13.3c0.3,0.5,0.7,1.1,1,1.4l-19.5,13L225.5,398.2z
			 M272.9,291l-46.7,31.4l0.1-2.1l44.1-29.6C271.1,290.7,271.9,290.8,272.9,291z M277.5,292l-51.1,34.4c-0.1-0.6-0.1-1.3-0.1-2
			l48.9-32.9C275.9,291.5,276.7,291.7,277.5,292z M267.7,290.4L226.6,318c0.1-0.7,0.3-1.6,0.4-2.3l37.9-25.5L267.7,290.4z
			 M281.7,293.3l-23.5,15.8c-1.6,0.7-2.9,1.6-4,2.7L227,330.1c-0.2-0.6-0.3-1.1-0.3-1.8l53.1-35.7L281.7,293.3z M227.4,331.8
			l24.1-16.1c-0.4,0.9-0.7,1.7-0.9,2.5l-22.7,15.3L227.4,331.8z M261.8,290.4l-34.1,22.8c0.4-1.1,0.6-1.8,1-2.8l29.5-19.8
			C259.5,290.4,260.7,290.4,261.8,290.4z M228.1,400.6l19.3-13c0.4,0.4,1,0.8,1.5,1.2l-19.5,12.8L228.1,400.6z M250.2,320.6
			c-0.1,0.7-0.1,1.4-0.1,2.2l-20.9,14l-0.7-1.6L250.2,320.6z M229.9,338.2l20.2-13.5c0.1,0.7,0.3,1.5,0.3,1.8l-19.7,13.2
			L229.9,338.2z M254.4,291.2l-24.2,16.4c0.7-1.3,1.7-2.7,2.5-3.8l16.7-11.3C250.9,292,252.8,291.5,254.4,291.2z M231.1,402.7
			l19.4-13l1.6,0.8l-19.5,13.1L231.1,402.7z M231.6,341.1l19.3-12.9c0.3,0.7,0.5,1.3,0.7,1.7l-19,12.7L231.6,341.1z M233.6,343.8
			l18.8-12.5l0.9,1.5l-18.5,12.4L233.6,343.8z M234.3,404.6l19.7-13.3l2.1,0.6L236,405.4C235.4,405.2,234.9,404.9,234.3,404.6z
			 M235.8,346.6l18.3-12.3l1,1.3l-18.3,12.2L235.8,346.6z M238,406.2l20.4-13.8c0.9,0.2,1.6,0.3,2.6,0.3L239.9,407
			C239.1,406.7,238.5,406.5,238,406.2z M257.4,338.2l-18.2,12.2l-1.1-1.2l18.2-12.3L257.4,338.2z M240.6,351.6l18.2-12.2l1.2,1.2
			l-18.2,12.2L240.6,351.6z M266.8,392.9l-23,15.3l-2-0.6l22-14.8L266.8,392.9z M248.3,409.3c-1-0.2-1.6-0.3-2.2-0.5l24.2-16.2
			l3.9-0.6L248.3,409.3z M250.8,409.8l28.3-19.1c1.8-0.6,3.6-1.3,5.5-2.3l-0.9-0.8l41.5-28l0.5,0.1l-0.3,1.8l-72.4,48.7L250.8,409.8
			z M255.8,410.5l69.3-46.6l-0.5,2.4l-66.1,44.4L255.8,410.5z M297.7,339.6L258,366.3l-1.3-1.1l42.8-28.9
			C299.1,337.3,298.4,338.7,297.7,339.6z M287.7,350.3c-2.9,2.1-6,3.9-9.5,5.4l0.7,0.6l-18.2,12.3l-1.4-1.2l35.6-23.8
			C292.9,345.9,290.4,348.3,287.7,350.3z M261.2,410.8l62.7-42.1c-0.3,0.9-0.5,1.9-0.8,2.6l-59,39.6
			C263.2,410.9,262.2,410.9,261.2,410.8z M261.9,369.6l18.4-12.2l1.3,1.1l-18.3,12.3L261.9,369.6z M285.3,294.9l-19.5,13.2
			c-1-0.1-2-0.1-3-0.1l20.7-13.9L285.3,294.9z M264.7,371.9l18.2-12.3l1.5,1.2L266.1,373L264.7,371.9z M267.4,374.1l18.3-12.3
			l1.3,1.1l-18.3,12.3L267.4,374.1z M267.4,410.8l54.9-36.9c-0.3,1-0.7,1.8-1,2.8l-50.7,34C269.8,410.8,268.5,410.8,267.4,410.8z
			 M288.6,296.8L270.5,309c-0.7-0.2-1.4-0.4-2.2-0.6l18.6-12.6L288.6,296.8z M270.1,376.4l18.4-12.3l1.3,1.1l-18.4,12.3L270.1,376.4
			z M291.5,299l-17.8,11.9c-0.4-0.4-0.9-0.7-1.5-1.1l17.9-11.9L291.5,299z M272.8,378.6l18.4-12.3l1.4,1.1l-18.5,12.3L272.8,378.6z
			 M274.2,410.3l45.7-30.7c-0.5,1.1-1.1,2.2-1.7,3.2l-40.1,26.9C276.7,410,275.6,410.2,274.2,410.3z M294,301.3l-17.9,12
			c-0.3-0.5-0.6-0.9-1-1.3l17.7-11.8L294,301.3z M275.6,380.9l18.3-12.3l1.3,1.1L276.9,382L275.6,380.9z M301.8,316.4l-25.5,17.2
			c0.5-1,0.9-1.9,1.3-2.9l23.8-16C301.6,315.2,301.8,315.8,301.8,316.4z M296.2,303.8l-18.5,12.5c-0.2-0.5-0.4-1-0.7-1.5l18.2-12.3
			L296.2,303.8z M298.1,306.6l-19.5,13.2c-0.1-0.7-0.2-1.2-0.3-1.8l19-12.8L298.1,306.6z M278.3,383.1l18.4-12.3l1.3,1.1l-18.3,12.4
			L278.3,383.1z M301,313l-22.6,15.2c0.2-0.7,0.3-1.6,0.4-2.3l21.6-14.5L301,313z M299.7,309.7l-20.9,14c0.1-0.1,0.1-0.2,0.1-0.3
			l-0.1-1.8l20.2-13.4C299.2,308.6,299.5,309.2,299.7,309.7z M281,385.4l39.3-26.6l2.6,0.4l-40.4,27.4L281,385.4z M282.5,408.8
			l33.4-22.4l1.3,1.1l-29.5,19.8C286.1,407.9,284.6,408.3,282.5,408.8z M295.8,403.9l22.9-15.3l1.3,1.1l-18.7,12.5l-1-0.8
			C298.7,402.4,297.6,403.1,295.8,403.9z M301,367.9l14.7-9.8l2.5,0.4L300,370.6C300.3,369.7,300.7,368.8,301,367.9z M302.3,363
			l8.3-5.8l2.5,0.4l-11.4,7.8L302.3,363z M302.7,403.4l18.6-12.6l1.5,1.2l-18.6,12.6L302.7,403.4z M303.1,358.4l2.8-1.9l2.4,0.4
			l-5.6,3.7L303.1,358.4z M305.5,405.7l18.5-12.6l1.5,1.2l-18.7,12.5L305.5,405.7z M308.1,407.8l18.7-12.5l1.3,1.1l-18.7,12.5
			L308.1,407.8z M330,399.3l-17.8,11.9l-1.3-1.1l18.6-12.6l1.3,1.1L330,399.3z M313.7,412.4l8.9-6l-7.6,7.1L313.7,412.4z"/>
	</g>
	<g id="XMLID_4073_">
		<g id="XMLID_4109_">
			<g id="XMLID_4132_">
				<g id="XMLID_183_">
					<path id="XMLID_195_" d="M6.1,312.4c0-1.3,0.7-2,2-2l19.5,0c2.3,0,4.3,0.8,5.8,2.3c1.5,1.5,2.3,3.5,2.3,5.8l0,48.4
						c0,2.3-0.8,4.3-2.3,5.8c-1.5,1.5-3.5,2.3-5.8,2.3l-13.5,0l0,27.6c0,1.3-0.7,2-2,2l-4,0c-1.3,0-2-0.7-2-2L6.1,312.4z
						 M14.1,318.5l0,48.5l11.4,0c1.3,0,2-0.7,2-2l0-44.4c0-1.3-0.7-2-2-2L14.1,318.5z"/>
					<path id="XMLID_193_" d="M50.9,312.4c0-1.3,0.7-2,2-2l4,0c1.3,0,2,0.7,2,2l0,84.1l16.8,0c1.3,0,2,0.7,2,2l0,4c0,1.3-0.7,2-2,2
						l-22.9,0c-1.3,0-2-0.7-2-2L50.9,312.4z"/>
					<path id="XMLID_190_" d="M109,310.4c1.2,0,1.8,0.7,2,2l11.4,90.2c0,1.3-0.7,2-2,2l-4,0c-1.2,0-1.9-0.7-2-2l-2-15.5l-14.8,0
						l-2,15.5c-0.2,1.3-0.9,2-2,2l-4,0c-1.3,0-2-0.7-2-2l11.5-90.2c0.1-1.3,0.8-2,2-2L109,310.4z M111.6,379.1l-6.7-54.5L98.2,379
						L111.6,379.1z"/>
					<path id="XMLID_188_" d="M148.1,402.6c0,1.3-0.7,2-2,2l-4,0c-1.3,0-2-0.7-2-2l0-84.1l-10.1,0c-1.3,0-2-0.7-2-2l0-4
						c0-1.3,0.7-2,2-2l28.3,0c1.3,0,2,0.7,2,2l0,4c0,1.3-0.7,2-2,2l-10.1,0L148.1,402.6z"/>
					<path id="XMLID_186_" d="M173.8,312.5c0-1.3,0.7-2,2-2l22.9,0c1.3,0,2,0.7,2,2l0,4c0,1.3-0.7,2-2,2l-16.8,0l0,28.3l11.4,0
						c1.3,0,2,0.7,2,2l0,4c0,1.3-0.7,2-2,2l-11.4,0l0,41.7l16.8,0c1.3,0,2,0.7,2,2l0,4c0,1.3-0.7,2-2,2l-22.9,0c-1.3,0-2-0.7-2-2
						L173.8,312.5z"/>
					<path id="XMLID_184_" d="M243.9,396.6c0,2.3-0.8,4.3-2.3,5.8c-1.5,1.5-3.5,2.3-5.8,2.3l-13.5,0c-2.3,0-4.3-0.8-5.8-2.3
						c-1.5-1.5-2.3-3.5-2.3-5.8l0-15.5c0-1.3,0.7-2,2-2l4,0c1.3,0,2,0.7,2,2l0,13.5c0,1.3,0.7,2,2,2l9.4,0c1.3,0,2-0.7,2-2l0-24.9
						c0-2.1-0.3-3.5-0.8-4.4c-0.5-0.9-1.2-1.7-1.9-2.3l-13.5-12.1c-1.3-1.3-2.6-2.7-3.7-4.4s-1.7-4.3-1.7-7.7l0-20.2
						c0-2.3,0.8-4.3,2.3-5.8c1.5-1.5,3.5-2.3,5.8-2.3l13.5,0c2.3,0,4.3,0.8,5.8,2.3c1.5,1.5,2.3,3.5,2.3,5.8l0,14.8c0,1.3-0.7,2-2,2
						l-4,0c-1.3,0-2-0.7-2-2l0-12.8c0-1.3-0.7-2-2-2l-9.4,0c-1.3,0-2,0.7-2,2l0,16.8c0,2.1,0.3,3.5,0.8,4.4c0.5,0.9,1.2,1.7,1.9,2.3
						l13.5,12.1c1.3,1.3,2.6,2.7,3.7,4.4c1.1,1.7,1.7,4.3,1.7,7.7L243.9,396.6z"/>
				</g>
			</g>
			<path id="XMLID_4127_" d="M13.9,408.2l-4,0c-2.5,0-4.1-1.6-4.1-4.1l0-90.2c0-2.5,1.6-4.1,4.1-4.1l19.5,0c2.9,0,5.3,1,7.3,2.9
				c1.9,1.9,2.9,4.4,2.9,7.3l0,48.5c0,2.9-1,5.3-2.9,7.3c-1.9,1.9-4.4,2.9-7.3,2.9l-11.4,0l0,25.5C18,406.6,16.4,408.2,13.9,408.2z
				 M9.9,311c-1.8,0-2.9,1-2.9,2.9L7,404c0,1.8,1.1,2.9,2.9,2.9l4,0c1.8,0,2.9-1.1,2.9-2.9l0-26.7l12.6,0c2.6,0,4.7-0.9,6.4-2.5
				c1.7-1.7,2.5-3.8,2.5-6.4l0-48.5c0-2.5-0.9-4.7-2.5-6.4c-1.7-1.7-3.8-2.5-6.4-2.5L9.9,311z M27.4,367.5l-10.6,0l0-46.7l10.6,0
				c0.3,0,0.5,0,0.7,0.1l0.2,0.1l0.1,0.2c0.1,0.2,0.1,0.4,0.1,0.8l0,44.4c0,0.1,0,0.2,0,0.3l0.2,0.3l-0.5,0.3
				C28,367.5,27.7,367.5,27.4,367.5z M18.1,366.3l9.3,0l0-44.2l-9.3,0L18.1,366.3z"/>
			<path id="XMLID_4124_" d="M77.6,408.2l-22.9,0c-2.5,0-4.1-1.6-4.1-4.1l0-90.2c0-2.5,1.6-4.1,4.1-4.1l4,0c2.5,0,4.1,1.6,4.1,4.1
				l0,82l14.7,0c2.5,0,4.1,1.6,4.1,4.1l0,4C81.8,406.6,80.2,408.2,77.6,408.2z M54.8,311c-1.8,0-2.9,1.1-2.9,2.9l0,90.2
				c0,1.8,1.1,2.9,2.9,2.9l22.9,0c1.8,0,2.9-1.1,2.9-2.9l0-4c0-1.8-1-2.9-2.9-2.9l-16,0l0-83.3c0-1.8-1-2.9-2.9-2.9L54.8,311z"/>
			<path id="XMLID_4119_" d="M122.2,408.2l-4,0c-2.4,0-4-1.5-4.1-4l-1.8-13.5l-11.1,0l-1.8,13.6c-0.3,2.4-1.9,3.8-4.1,3.8l-4,0
				c-2.5,0-4.1-1.6-4.1-4.1l11.5-90.4c0.2-2.4,1.7-3.9,4.1-3.9l8.1,0c2.2,0,3.8,1.5,4.1,3.9l11.4,90.2c0,1.4-0.4,2.5-1.1,3.3
				C124.4,407.8,123.4,408.2,122.2,408.2z M100.1,389.5l13.3,0l1.9,14.6c0.1,1.8,1.2,2.9,2.9,2.9l4,0c0.9,0,1.6-0.3,2.1-0.7
				c0.5-0.5,0.8-1.3,0.8-2.3l-11.4-90.1c-0.2-1.8-1.3-2.8-2.9-2.8l-8.1,0c-1.7,0-2.8,1-2.9,2.7l-11.5,90.4c0,1.7,1.1,2.8,2.9,2.8
				l4,0c1.6,0,2.6-1,2.9-2.8L100.1,389.5z M112.5,379.7l-11.5,0l5.8-46.7L112.5,379.7z M102.4,378.4l8.7,0l-4.3-35.3L102.4,378.4z"
				/>
			<path id="XMLID_4116_" d="M147.9,408.2l-4,0c-2.5,0-4.1-1.6-4.1-4.1l0-82l-8,0c-2.5,0-4.1-1.6-4.1-4.1l0-4c0-2.5,1.6-4.1,4.1-4.1
				l28.3,0c2.5,0,4.1,1.6,4.1,4.1l0,4c0,2.5-1.6,4.1-4.1,4.1l-8,0l0,82C152,406.6,150.4,408.2,147.9,408.2z M131.8,311
				c-1.8,0-2.9,1.1-2.9,2.9l0,4c0,1.8,1.1,2.9,2.9,2.9l9.2,0l0,83.3c0,1.8,1.1,2.9,2.9,2.9l4,0c1.8,0,2.9-1,2.9-2.9l0-83.3l9.2,0
				c1.8,0,2.9-1.1,2.9-2.9l0-4c0-1.8-1-2.9-2.9-2.9L131.8,311z"/>
			<path id="XMLID_4113_" d="M200.5,408.2l-22.9,0c-2.5,0-4.1-1.6-4.1-4.1l0-90.2c0-2.5,1.6-4.1,4.1-4.1l22.9,0
				c2.5,0,4.1,1.6,4.1,4.1l0,4c0,2.5-1.6,4.1-4.1,4.1l-14.7,0l0,24.1l9.3,0c2.5,0,4.1,1.6,4.1,4.1l0,4c0,2.5-1.6,4.1-4.1,4.1l-9.3,0
				l0,37.5l14.7,0c2.5,0,4.1,1.6,4.1,4.1l0,4C204.6,406.6,203,408.2,200.5,408.2z M177.7,311.1c-1.8,0-2.9,1.1-2.9,2.9l0,90.2
				c0,1.8,1.1,2.9,2.9,2.9l22.9,0c1.8,0,2.9-1.1,2.9-2.9l0-4c0-1.8-1-2.9-2.9-2.9l-16,0l0-40l10.6,0c1.8,0,2.9-1.1,2.9-2.9l0-4
				c0-1.8-1-2.9-2.9-2.9l-10.6,0l0-26.5l16,0c1.8,0,2.9-1.1,2.9-2.9l0-4c0-1.8-1-2.9-2.9-2.9L177.7,311.1z"/>
			<path id="XMLID_4110_" d="M237.7,408.2l-13.5,0c-2.9,0-5.3-1-7.3-2.9c-1.9-1.9-2.9-4.4-2.9-7.3l0-15.5c0-2.5,1.6-4.1,4.1-4.1l4,0
				c2.5,0,4.1,1.6,4.1,4.1l0,13.4l9.3,0l0-24.8c0-2.3-0.4-3.2-0.5-3.4c-0.4-0.7-0.9-1.3-1.5-1.8l-13.5-12.1c-1.5-1.4-2.8-3-4.1-4.8
				c-1.4-2.1-2-5-2-8.8l0-20.2c0-2.9,1-5.3,2.9-7.3c1.9-1.9,4.4-2.9,7.3-2.9l13.5,0c2.9,0,5.3,1,7.3,2.9c1.9,1.9,2.9,4.4,2.9,7.3
				l0,14.8c0,2.5-1.6,4.1-4.1,4.1l-4,0c-2.5,0-4.1-1.6-4.1-4.1l0-12.7l-9.3,0l0,16.7c0,2.3,0.4,3.2,0.5,3.4c0.4,0.7,0.9,1.3,1.5,1.8
				l13.5,12.1c1.5,1.4,2.8,3,4,4.8c1.4,2.1,2,5,2,8.8l0,28.3c0,2.9-1,5.3-2.9,7.3C243,407.3,240.6,408.2,237.7,408.2z M218.2,379.7
				c-1.8,0-2.9,1.1-2.9,2.9l0,15.5c0,2.6,0.9,4.7,2.5,6.4c1.7,1.7,3.8,2.5,6.4,2.5l13.5,0c2.6,0,4.7-0.9,6.4-2.5
				c1.7-1.7,2.5-3.8,2.5-6.4l0-28.3c0-3.6-0.6-6.3-1.8-8.1c-1.2-1.8-2.5-3.3-3.8-4.6l-13.5-12.1c-0.6-0.5-1.2-1.2-1.7-2.1
				c-0.3-0.5-0.7-1.6-0.7-4l0-16.8c0-0.4,0.1-0.7,0.2-0.8c0.1-0.1,0.3-0.4,1-0.4l9.4,0c0.2,0,0.4,0,0.6,0.1l0.3,0l0.2,0.3
				c0.1,0.2,0.1,0.4,0.1,0.8l0,12.8c0,1.8,1,2.9,2.9,2.9l4,0c1.8,0,2.9-1,2.9-2.9l0-14.8c0-2.5-0.9-4.7-2.5-6.4
				c-1.7-1.7-3.8-2.5-6.4-2.5l-13.5,0c-2.6,0-4.7,0.9-6.4,2.5c-1.7,1.7-2.5,3.8-2.5,6.4l0,20.2c0,3.6,0.6,6.3,1.8,8.1
				c1.2,1.8,2.5,3.3,3.8,4.6l13.5,12.1c0.7,0.6,1.2,1.3,1.7,2.1c0.3,0.5,0.7,1.6,0.7,4l0,24.9c0,0.1,0,0.2,0,0.3l0.2,0.2l-0.4,0.4
				c-0.2,0.1-0.5,0.2-0.9,0.2l-9.4,0c-0.3,0-0.5,0-0.7-0.1l-0.2-0.1l-0.1-0.2c-0.1-0.1-0.1-0.4-0.1-0.7l0-13.5c0-1.8-1-2.9-2.9-2.9
				L218.2,379.7z"/>
		</g>
		<g id="XMLID_4088_">
			<g id="XMLID_127_">
				<path id="XMLID_136_" d="M334.7,396.6c0,2.3-0.8,4.3-2.3,5.8c-1.5,1.5-3.5,2.3-5.8,2.3l-19.4,0c-2.3,0-4.3-0.8-5.8-2.3
					c-1.5-1.5-2.3-3.5-2.3-5.8l0-78.1c0-2.3,0.8-4.3,2.3-5.8c1.5-1.5,3.5-2.3,5.8-2.3l19.4,0c2.3,0,4.3,0.8,5.8,2.3
					c1.5,1.5,2.3,3.5,2.3,5.8l0,14.8c0,1.3-0.7,2-2,2l-4,0c-1.3,0-2-0.7-2-2l0-12.8c0-1.3-0.7-2-2-2l-15.3,0c-1.3,0-2,0.7-2,2l0,74
					c0,1.3,0.7,2,2,2l15.3,0c1.3,0,2-0.7,2-2l0-13.5c0-1.3,0.7-2,2-2l4,0c1.3,0,2,0.7,2,2L334.7,396.6z"/>
				<path id="XMLID_134_" d="M366.9,394.6c0,1.3,0.7,2,2,2l15.3,0c1.3,0,2-0.7,2-2l0-82.1c0-1.3,0.7-2,2-2l4,0c1.3,0,2,0.7,2,2
					l0,84.1c0,2.3-0.8,4.3-2.3,5.8c-1.5,1.5-3.5,2.3-5.8,2.3l-19.4,0c-2.3,0-4.3-0.8-5.8-2.3c-1.5-1.5-2.3-3.5-2.3-5.8l0-84.1
					c0-1.3,0.7-2,2-2l4,0c1.3,0,2,0.7,2,2L366.9,394.6z"/>
				<path id="XMLID_131_" d="M421.3,312.5c0-1.3,0.7-2,2-2l19.5,0c2.3,0,4.3,0.8,5.8,2.3c1.5,1.5,2.3,3.5,2.3,5.8l0,48.4
					c0,2.3-0.8,4.3-2.3,5.8c-1.5,1.5-3.5,2.3-5.8,2.3l-13.5,0l0,27.6c0,1.3-0.7,2-2,2l-4,0c-1.3,0-2-0.7-2-2L421.3,312.5z
					 M429.4,318.6l0,48.4l11.4,0c1.3,0,2-0.7,2-2l0-44.4c0-1.3-0.7-2-2-2L429.4,318.6z"/>
				<path id="XMLID_129_" d="M504.8,396.7c0,2.3-0.8,4.3-2.3,5.8c-1.5,1.5-3.5,2.3-5.8,2.3l-13.5,0c-2.3,0-4.3-0.8-5.8-2.3
					c-1.5-1.5-2.3-3.5-2.3-5.8l0-15.5c0-1.3,0.7-2,2-2l4,0c1.3,0,2,0.7,2,2l0,13.5c0,1.3,0.7,2,2,2l9.4,0c1.3,0,2-0.7,2-2l0-24.9
					c0-2.1-0.3-3.5-0.8-4.4c-0.5-0.9-1.2-1.7-1.9-2.3l-13.5-12.1c-1.3-1.3-2.6-2.7-3.7-4.4c-1.1-1.7-1.7-4.3-1.7-7.7l0-20.2
					c0-2.3,0.8-4.3,2.3-5.8c1.5-1.5,3.5-2.3,5.8-2.3l13.5,0c2.3,0,4.3,0.8,5.8,2.3c1.5,1.5,2.3,3.5,2.3,5.8l0,14.8c0,1.3-0.7,2-2,2
					l-4,0c-1.3,0-2-0.7-2-2l0-12.8c0-1.3-0.7-2-2-2l-9.4,0c-1.3,0-2,0.7-2,2l0,16.8c0,2.1,0.3,3.5,0.8,4.4c0.5,0.9,1.2,1.7,1.9,2.3
					l13.5,12.1c1.3,1.3,2.6,2.7,3.7,4.4c1.1,1.7,1.7,4.3,1.7,7.7L504.8,396.7z"/>
			</g>
		</g>
		<path id="XMLID_4085_" d="M328.4,408.3l-19.4,0c-2.9,0-5.3-1-7.3-2.9c-1.9-1.9-2.9-4.4-2.9-7.3l0-78.1c0-2.9,1-5.3,2.9-7.3
			c1.9-1.9,4.4-2.9,7.3-2.9l19.4,0c2.9,0,5.3,1,7.3,2.9c1.9,1.9,2.9,4.4,2.9,7.3l0,14.8c0,2.5-1.6,4.1-4.1,4.1l-4,0
			c-2.5,0-4.1-1.6-4.1-4.1l0-12.7l-15.2,0l0,73.9l15.2,0l0-13.4c0-2.5,1.6-4.1,4.1-4.1l4,0c2.5,0,4.1,1.6,4.1,4.1l0,15.5
			c0,2.9-1,5.3-2.9,7.3C333.8,407.3,331.3,408.3,328.4,408.3z M309.1,311.1c-2.6,0-4.7,0.9-6.4,2.5c-1.7,1.7-2.5,3.8-2.5,6.4l0,78.1
			c0,2.6,0.9,4.7,2.5,6.4c1.7,1.7,3.8,2.5,6.4,2.5l19.4,0c2.6,0,4.7-0.9,6.4-2.5c1.7-1.7,2.5-3.8,2.5-6.4l0-15.5
			c0-1.8-1-2.9-2.9-2.9l-4,0c-1.8,0-2.9,1.1-2.9,2.9l0,13.5c0,0.4-0.1,0.7-0.2,0.8l-0.1,0.2c-0.2,0.1-0.5,0.2-0.9,0.2l-15.3,0
			c-0.2,0-0.4,0-0.6-0.1l-0.3,0l-0.2-0.3c-0.1-0.2-0.2-0.4-0.2-0.8l0-74c0-0.4,0.1-0.7,0.2-0.8l0.1-0.2c0.2-0.1,0.5-0.2,0.9-0.2
			l15.3,0c0.2,0,0.4,0,0.6,0.1h0.1l0.2,0.1c0.1,0.1,0.3,0.2,0.3,1l0,12.8c0,1.8,1.1,2.9,2.9,2.9l4,0c1.8,0,2.9-1,2.9-2.9l0-14.8
			c0-2.6-0.9-4.7-2.5-6.4c-1.7-1.7-3.8-2.5-6.4-2.5L309.1,311.1z"/>
		<path id="XMLID_4082_" d="M388.2,408.3l-19.4,0c-2.9,0-5.3-1-7.3-2.9c-1.9-1.9-2.9-4.4-2.9-7.3l0-84.1c0-2.5,1.6-4.1,4.1-4.1l4,0
			c2.5,0,4.1,1.6,4.1,4.1l0,82l15.2,0l0-82c0-2.5,1.6-4.1,4.1-4.1l4,0c2.5,0,4.1,1.6,4.1,4.1l0,84.1c0,2.9-1,5.3-2.9,7.3
			C393.5,407.3,391.1,408.3,388.2,408.3z M362.8,311.1c-1.8,0-2.9,1-2.9,2.9l0,84.1c0,2.6,0.9,4.7,2.5,6.4c1.7,1.7,3.8,2.5,6.4,2.5
			l19.4,0c2.6,0,4.7-0.9,6.4-2.5c1.7-1.7,2.5-3.8,2.5-6.4l0-84.1c0-1.8-1.1-2.9-2.9-2.9l-4,0c-1.8,0-2.9,1-2.9,2.9l0,82.1
			c0,0.1,0,0.2,0,0.3l0.3,0.4l-0.6,0.3c-0.2,0.1-0.4,0.1-0.8,0.1l-15.3,0c-0.2,0-0.4,0-0.6-0.1H370l-0.2-0.2
			c-0.1-0.2-0.2-0.5-0.2-0.9l0-82.1c0-1.8-1.1-2.9-2.9-2.9L362.8,311.1z"/>
		<path id="XMLID_4077_" d="M429.2,408.3l-4,0c-2.5,0-4.1-1.6-4.1-4.1l0-90.2c0-2.5,1.6-4.1,4.1-4.1l19.5,0c2.9,0,5.3,1,7.3,2.9
			c1.9,1.9,2.9,4.4,2.9,7.3l0,48.5c0,2.9-1,5.3-2.9,7.3c-1.9,1.9-4.4,2.9-7.3,2.9l-11.4,0l0,25.5
			C433.3,406.7,431.7,408.3,429.2,408.3z M425.2,311.1c-1.8,0-2.9,1-2.9,2.9l0,90.2c0,1.8,1.1,2.9,2.9,2.9l4,0
			c1.8,0,2.9-1.1,2.9-2.9l0-26.7l12.6,0c2.6,0,4.7-0.9,6.4-2.5c1.7-1.7,2.5-3.8,2.5-6.4l0-48.5c0-2.6-0.9-4.7-2.5-6.4
			c-1.7-1.7-3.8-2.5-6.4-2.5L425.2,311.1z M442.7,367.7l-10.6,0l0-46.7l10.6,0c0.2,0,0.4,0,0.6,0.1h0.2l0.2,0.2
			c0.1,0.2,0.2,0.5,0.2,0.9l0,44.4c0,0.1,0,0.2,0,0.3l0.2,0.3l-0.5,0.3C443.3,367.6,443,367.7,442.7,367.7z M433.3,366.4l9.3,0
			l0-44.2l-9.3,0L433.3,366.4z"/>
		<path id="XMLID_4074_" d="M498.5,408.3l-13.5,0c-2.9,0-5.3-1-7.3-2.9c-1.9-1.9-2.9-4.4-2.9-7.3l0-15.5c0-2.5,1.6-4.1,4.1-4.1l4,0
			c2.5,0,4.1,1.6,4.1,4.1l0,13.4l9.3,0l0-24.8c0-2.3-0.4-3.2-0.5-3.4c-0.4-0.7-0.9-1.3-1.5-1.8L481,354c-1.5-1.4-2.8-3-4.1-4.8
			c-1.4-2.1-2-5-2-8.8l0-20.2c0-2.9,1-5.3,2.9-7.3c1.9-1.9,4.4-2.9,7.3-2.9l13.5,0c2.9,0,5.3,1,7.3,2.9c1.9,1.9,2.9,4.4,2.9,7.3
			l0,14.8c0,2.5-1.6,4.1-4.1,4.1l-4,0c-2.5,0-4.1-1.6-4.1-4.1l0-12.7l-9.3,0l0,16.7c0,2.3,0.4,3.2,0.5,3.3c0.4,0.7,0.9,1.3,1.5,1.8
			l13.5,12.1c1.5,1.4,2.8,3,4,4.8c1.4,2.1,2,5,2,8.8l0,28.3c0,2.9-1,5.3-2.9,7.3C503.9,407.4,501.4,408.3,498.5,408.3z M479,379.8
			c-1.8,0-2.9,1.1-2.9,2.9l0,15.5c0,2.6,0.9,4.7,2.5,6.4c1.7,1.7,3.8,2.5,6.4,2.5l13.5,0c2.6,0,4.7-0.9,6.4-2.5
			c1.7-1.7,2.5-3.8,2.5-6.4l0-28.3c0-3.6-0.6-6.3-1.8-8.1c-1.2-1.8-2.4-3.3-3.9-4.6L488.3,345c-0.6-0.5-1.2-1.2-1.7-2.1
			c-0.3-0.5-0.7-1.6-0.7-4l0-16.8c0-0.4,0.1-0.7,0.2-0.8c0.1-0.1,0.3-0.4,1-0.4l9.4,0c0.2,0,0.4,0,0.6,0.1l0.2,0l0.2,0.2
			c0.1,0.2,0.2,0.5,0.2,0.9l0,12.8c0,1.8,1.1,2.9,2.9,2.9l4,0c1.8,0,2.9-1,2.9-2.9l0-14.8c0-2.6-0.9-4.7-2.5-6.4
			c-1.7-1.7-3.8-2.5-6.4-2.5l-13.5,0c-2.6,0-4.7,0.9-6.4,2.5c-1.7,1.7-2.5,3.8-2.5,6.4l0,20.2c0,3.6,0.6,6.3,1.8,8.1
			c1.2,1.8,2.5,3.3,3.9,4.6l13.5,12.1c0.6,0.6,1.2,1.3,1.7,2.1c0.3,0.5,0.7,1.7,0.7,4l0,24.9c0,0.4-0.1,0.7-0.2,0.8
			c-0.1,0.1-0.3,0.4-1,0.4l-9.4,0c-0.2,0-0.4,0-0.6-0.1h-0.3l-0.2-0.4c-0.1-0.1-0.1-0.4-0.1-0.7l0-13.5c0-1.8-1-2.9-2.9-2.9
			L479,379.8z"/>
	</g>
	<path id="XMLID_4072_" class="st1" d="M208,131.9l-21.1,0c-6.5,0-13-23.5-17.4-44c14.8,0,42,0,55.8,0.4
		C220.9,108.2,214.4,131.9,208,131.9z"/>
	<ellipse id="XMLID_4071_" class="st0" cx="161.4" cy="222.5" rx="4.2" ry="4.2"/>
	
		<rect id="XMLID_4070_" x="322" y="-23.2" transform="matrix(0.1061 0.9944 -0.9944 0.1061 317.1582 -298.4573)" class="st0" width="5.2" height="100.7"/>
	
		<rect id="XMLID_4069_" x="321.3" y="-0.4" transform="matrix(-7.149796e-02 0.9974 -0.9974 -7.149796e-02 396.9594 -269.4996)" class="st0" width="5.2" height="100.7"/>
	<rect id="XMLID_4068_" x="273.7" y="73.9" class="st0" width="100.7" height="5.2"/>
	<path id="XMLID_4067_" class="st0" d="M374.6,183.6c-1.7-2.6-4-4.9-6.9-6.5l-4.3,11.6L374.6,183.6z"/>
	<path id="XMLID_4066_" class="st0" d="M341.6,184.4c3.6,1.4,7,2.6,10.5,3.9l-4.6-10.2C345.1,179.7,343.1,181.8,341.6,184.4z"/>
	<path id="XMLID_4065_" class="st0" d="M362.1,175c-3.2-0.6-6.4-0.4-9.3,0.5l5,11L362.1,175z"/>
	<path id="XMLID_4064_" class="st0" d="M366.5,193.7c3.3,1.3,6.8,2.6,10.8,4.2c0.6-3,0.5-6.1-0.3-9L366.5,193.7z"/>
	<g id="XMLID_4061_">
		<rect id="XMLID_4063_" x="109.3" y="459" width="36.7" height="4.6"/>
		<rect id="XMLID_4062_" x="368" y="459.1" width="36.7" height="4.6"/>
	</g>
	<g id="XMLID_4034_">
		<g id="XMLID_128_">
			<path id="XMLID_145_" d="M187.5,478.1c-3.8-3.7-5.7-8.4-5.7-14.1c0-5.7,1.9-10.4,5.7-14c3.8-3.7,8.5-5.6,14.2-5.5
				c3.9,0,7.3,0.9,10.2,2.5l0,6c-3.1-2-6.5-3-10.2-3c-3.9,0-7.3,1.3-9.9,4c-2.6,2.6-3.9,6-3.9,10c0,4,1.3,7.4,4,10.1
				c2.7,2.6,6,3.9,10.1,3.9c4.3,0,7.9-1.1,10.8-3.4l0,6c-3.1,2-6.8,3-11.1,3C196.1,483.6,191.3,481.7,187.5,478.1z"/>
			<path id="XMLID_142_" d="M219.3,482.9l16.5-38l5.7,0l16.5,38l-6.4,0l-4.1-9.4l-17.9,0l-4,9.4L219.3,482.9z M231.7,468.3l13.8,0
				l-6.9-15.9L231.7,468.3z"/>
			<path id="XMLID_140_" d="M266.6,482.9l0-37.7l26.8,0l0,5.4l-20.9,0l0,9.9l16.6,0l0,5.4l-16.6,0l0,17L266.6,482.9z"/>
			<path id="XMLID_138_" d="M303,482.9l0-37.7l26.8,0l0,5.4l-20.9,0l0,9.4l17,0l0,5.4l-17,0l0,12l21.6,0l0,5.4L303,482.9z"/>
		</g>
	</g>
	<g id="XMLID_3955_">
		<ellipse id="XMLID_4033_" class="st2" cx="165.4" cy="187.1" rx="3.5" ry="3.6"/>
		<ellipse id="XMLID_4032_" class="st2" cx="176.7" cy="192" rx="4.2" ry="4.2"/>
		<ellipse id="XMLID_4031_" class="st2" cx="179.1" cy="179.6" rx="3.1" ry="3.1"/>
		<ellipse id="XMLID_4030_" class="st2" cx="198.7" cy="232.4" rx="4.2" ry="4.2"/>
		<ellipse id="XMLID_4029_" class="st2" cx="186.6" cy="231.5" rx="2.8" ry="2.8"/>
		<ellipse id="XMLID_4028_" class="st2" cx="205.2" cy="213.5" rx="2.8" ry="2.8"/>
		<path id="XMLID_4025_" class="st2" d="M161.4,212.4c-5.6,0-10.1,4.6-10.1,10.2c0,5.6,4.5,10.2,10.1,10.2c5.6,0,10.1-4.6,10.1-10.2
			C171.5,216.9,167,212.4,161.4,212.4z M161.4,226.8c-2.3,0-4.2-1.9-4.2-4.2c0-2.3,1.9-4.2,4.2-4.2c2.3,0,4.2,1.9,4.2,4.2
			C165.6,224.9,163.7,226.8,161.4,226.8z"/>
		<path id="XMLID_4020_" class="st2" d="M178.8,162.6c-22.2,0-40.9,15.2-46.4,35.9h0c-1.5,0-3,0.7-4.1,1.8c-1.1,1.2-1.7,2.8-1.6,4.4
			c0.8,18.6,8.3,36.2,21.1,49.6c1.1,1.2,2.6,1.8,4.2,1.8c0,0,0,0,0,0c1.6,0,3.1-0.7,4.2-1.8l0.4-0.4c6.7,3.5,14.2,5.6,22.2,5.6
			c26.5,0,48.1-21.7,48.1-48.4C226.9,184.3,205.3,162.6,178.8,162.6z M152,250.2c-11.8-12.4-18.7-28.6-19.6-45.8l5.3,0
			c0.8,15.7,7.2,30.7,17.9,42.1L152,250.2z M158.5,240.8c-0.5-0.5-1-1.1-1.4-1.7c-0.8-0.9-1.5-1.9-2.2-2.8c-0.4-0.6-0.8-1.1-1.2-1.7
			c-0.7-1.1-1.4-2.2-2-3.3c-0.3-0.5-0.6-1-0.9-1.5c-1.8-3.3-3.3-6.8-4.4-10.3c-0.2-0.6-0.3-1.2-0.5-1.8c-0.3-1.2-0.7-2.4-1-3.7
			c-0.2-0.7-0.3-1.4-0.4-2.1c-0.2-1.1-0.4-2.3-0.5-3.5c-0.1-0.8-0.2-1.5-0.2-2.3c0-0.6-0.1-1.2-0.1-1.7l52.5,0l-36.4,37.7
			C159.3,241.7,158.9,241.3,158.5,240.8z M178.8,253.6c-6.4,0-12.5-1.5-17.9-4.1l40.1-41.5c1.6-1.7,2.1-4.5,1.2-6.6
			c-0.8-1.8-2.4-2.9-4.3-2.9c0,0,0,0,0,0l-54.3,0l-5,0c5.3-17.3,21.3-30,40.3-30c23.3,0,42.2,19.1,42.2,42.6
			C221,234.5,202,253.6,178.8,253.6z"/>
		<path id="XMLID_3962_" class="st2" d="M393.1,184.3c-3.8-8.4-10-14.8-17.5-18.9l0-59.7c4.2-7.4,6.6-15.9,6.6-24.8
			c0-3.8-0.4-7.6-1.3-11.3l-0.5-2.3h-0.2c0.7-2.8,1.2-5.7,1.5-8.7c0.3-3.7,0.1-7.6-0.5-11.4l-0.2-1.5v0c2-6.5,2.8-13.4,2-20.3
			c-0.4-3.7-1.2-7.5-2.5-11.1l-0.8-2.2L364,13.8l-152.6-0.1c-0.2,0-0.3,0-0.5,0l-19.2,0c-2,0-3.6-1.5-3.6-3.4c0-1.8,1.6-3.4,3.6-3.4
			l13.4,0c1.2,0,2.2-1,2.2-2.2c0-1.2-1-2.2-2.2-2.2l-13.4,0c-4.4,0-8,3.5-8,7.7c0,1.2,0.3,2.4,0.8,3.4l-48.2,0l-0.1,153
			c-11.6,11.2-18.8,26.9-18.8,44.4c0,34,27.4,61.7,61.2,61.7c17.7,0,33.6-7.6,44.8-19.7l152,0.1l0-16.5
			C394,226.5,401.9,203.8,393.1,184.3z M375.7,88.1l-103.5,0c-0.2-1-0.3-2.1-0.4-3.1l104.3,0C376,86,375.9,87.1,375.7,88.1z
			 M315.2,174.1c-2.6-1-5.4-0.9-7.9,0.3c-2.5,1.1-4.4,3.2-5.4,5.7c-1,2.6-0.9,5.4,0.3,7.9c1.1,2.5,3.2,4.4,5.7,5.4l7.9,3
			c-0.5,4.4-0.4,8.8,0.6,13.2l-29.7,0l0-51.4l83,0l0,4.6c-9.5-3.4-20.3-3.3-30.2,1.2c-6.7,3-12.2,7.6-16.2,13.2L315.2,174.1z
			 M320.1,182.2c-1.4,2.6-2.4,5.3-3.2,8.2l-6.9-2.6c-1.1-0.4-2-1.2-2.4-2.3c-0.5-1.1-0.5-2.3-0.1-3.4c0.4-1.1,1.2-2,2.3-2.4
			c0.6-0.3,1.2-0.4,1.8-0.4c0.5,0,1,0.1,1.5,0.3L320.1,182.2z M330.7,152.2l0-15.1l39,0l0,15.1L330.7,152.2z M344.3,131.2
			c10.1-3.5,18.8-9.4,25.4-17.1l0,17.1L344.3,131.2z M323.9,128.8c-23.9,0-44.1-14.8-50.3-34.8l100.7,0
			C368.1,114.1,347.9,128.8,323.9,128.8z M375.2,62.2c-0.2,1-0.4,2.1-0.7,3.1l-103.2-7.4c-0.1-1-0.2-2.1-0.2-3.2L375.2,62.2z
			 M273.5,49l0.4-5.2L374.3,51l-0.4,5.2L273.5,49z M273.7,73.8l100.7,0l0,5.2l-100.7,0L273.7,73.8z M273.3,67.3
			c-0.4-1.1-0.7-2.2-0.9-3.4l47.2,3.4L273.3,67.3z M375.1,44.5l-28.5-2l29.8-3.2C376.1,41.1,375.7,42.8,375.1,44.5z M377.2,33.3
			l-63.9,6.8l-17.7-1.3l81.7-8.7C377.3,31.2,377.2,32.2,377.2,33.3z M374.4,19.2l0.5,5.1L274.8,35.1l-0.5-5.1L374.4,19.2z
			 M258.6,19.6l50.1,0l-41.4,4.4l-0.3,2.3c-0.5,3.8-0.5,7.7-0.1,11.4c0.1,0.7,0.2,1.3,0.3,2c-1,3.5-1.7,7-1.9,10.5
			c-0.4,6.2,0.3,12.1,2,17.8l-0.3,1.5c-0.9,3.8-1.3,7.6-1.3,11.3c0,23,15.7,42.6,37.8,50.3l-44.9,0L258.6,19.6z M258.6,137.1l66.1,0
			l0,15.1l-66.1,0L258.6,137.1z M258.6,158.1l22.2,0l0,51.4l-22.2,0L258.6,158.1z M258.5,215.4l59.7,0c0.3,0.7,0.5,1.4,0.8,2.1
			c2.6,5.7,6.4,10.7,11.1,14.6l-71.6,0L258.5,215.4z M178.8,266.8c-30.5,0-55.3-25-55.3-55.8c0-30.7,24.8-55.7,55.3-55.7
			c30.5,0,55.3,25,55.3,55.8C234.1,241.8,209.3,266.8,178.8,266.8z M252.6,247.1l-24.2,0c7.3-10.1,11.6-22.6,11.6-36
			c0-34-27.4-61.7-61.2-61.7c-13.7,0-26.3,4.6-36.5,12.3l0-24.6l78.3,0c-1.5,3.2-2.5,6.2-2.5,8.4c0,8.2,6.7,14.9,14.9,14.9
			c8.2,0,14.9-6.7,14.9-14.9c0-2.3-1-5.3-2.5-8.4l7.2,0L252.6,247.1z M167.3,61.1l60.3,0c-1.3,8.5-2.9,16.6-4.5,24.2
			c-12-0.3-31.3-0.3-45.7-0.4l-5.6,0C171.5,83.6,168.3,67.2,167.3,61.1z M177.4,90.9c13.8,0,32.3,0.1,44.2,0.3
			c-8.1,35.5-13.3,37.6-13.7,37.8l-21,0c-0.1,0-0.3-0.2-0.4-0.2c-1.4-1-6.3-6.7-13.3-37.8L177.4,90.9z M224.1,145.5
			c0-3.3,4.7-11.5,9-17.9c4.3,6.4,9,14.7,9,17.9c0,4.9-4,9-9,9C228.1,154.5,224.1,150.5,224.1,145.5z M252.6,131.2l-10.4,0
			c-2.8-4.8-5.8-9.1-6.8-10.5l-2.4-3.3l-2.4,3.3c-1,1.4-4,5.7-6.8,10.5l-9.7,0c1.1-1.5,2.3-3.5,3.6-6.3c8-16.6,13.8-49.5,16.3-66.3
			l0.5-3.4l-74.1,0l0.5,3.4c1.1,6.9,2.2,13.2,3.2,18.9l-2.4,0c-7.6,0-13.7,6.5-13.7,14.4c0,8,6.1,14.4,13.7,14.4l3.3,0
			c1.6,0,3-1.3,3-3c0-1.6-1.3-3-3-3l-3.3,0c-4.3,0-7.8-3.8-7.8-8.5c0-4.7,3.5-8.5,7.8-8.5l3.5,0c3.1,15.3,6,26.2,8.8,33.9
			c2.4,7,4.6,11.3,6.6,13.9l-38.4,0l0-111.6l71.6,0c0.4,0.5,0.6,1.1,0.6,1.8c0,1.8-1.6,3.3-3.6,3.3l-24.7,0c-4.4,0-8,3.5-8,7.7
			c0,4.3,3.6,7.8,8,7.8l16.3,0c2,0,3.6,1.5,3.6,3.4c0,1.8-1.6,3.3-3.6,3.3l-10.7,0c-1.2,0-2.2,1-2.2,2.2c0,1.2,1,2.2,2.2,2.2l10.7,0
			c4.4,0,8-3.5,8-7.7c0-4.3-3.6-7.7-8-7.7l-16.3,0c-2,0-3.6-1.5-3.6-3.4c0-1.8,1.6-3.3,3.6-3.3l24.7,0c4.4,0,8-3.5,8-7.7
			c0-0.6-0.1-1.2-0.2-1.8l34,0L252.6,131.2z M293.9,247.1l-35.4,0l0-9l35.4,0L293.9,247.1z M369.7,247.1l-69.7,0l0-9l39.9,0
			c0.6,0.3,1.2,0.6,1.9,0.8c4.7,1.8,9.6,2.7,14.4,2.7c4.6,0,9.2-0.8,13.6-2.4L369.7,247.1z M388.5,213.3
			c-3.3,8.7-9.8,15.5-18.2,19.3c-8.4,3.8-17.9,4.1-26.5,0.8c-8.7-3.3-15.5-9.8-19.3-18.2c-7.8-17.4,0-38,17.4-45.9
			c17.4-7.8,38,0,45.8,17.4C391.5,195.2,391.8,204.6,388.5,213.3z"/>
		<path id="XMLID_3956_" class="st2" d="M367.4,170.4c-13-4.9-27.6,1.6-32.5,14.6l-1,2.8l2.8,1.1c4.9,1.9,9.3,3.5,13.8,5.2
			c8.1,3,16.3,6.1,27.8,10.6l2.8,1.1l1.1-2.8C386.9,189.9,380.4,175.3,367.4,170.4z M341.6,184.4c1.5-2.6,3.5-4.7,5.9-6.3l4.6,10.2
			C348.7,187,345.2,185.8,341.6,184.4z M357.8,186.6l-5-11c3-0.9,6.2-1.1,9.3-0.5L357.8,186.6z M367.7,177.1
			c2.9,1.6,5.2,3.8,6.9,6.5l-11.2,5.1L367.7,177.1z M377.3,197.9c-4-1.6-7.5-2.9-10.8-4.2L377,189
			C377.7,191.8,377.9,194.9,377.3,197.9z"/>
	</g>
</g>
</svg>
